<mxfile host="app.diagrams.net" modified="2023-02-11T04:11:20.619Z" agent="5.0 (Windows NT 10.0; Win64; x64) AppleWebKit/537.36 (KHTML, like Gecko) Chrome/108.0.0.0 Safari/537.36 OPR/94.0.0.0" etag="-xvnhpIYL1UXPqpOyu8c" version="20.8.20" type="github">
  <diagram id="C5RBs43oDa-KdzZeNtuy" name="Page-1">
    <mxGraphModel dx="1882" dy="2904" grid="1" gridSize="10" guides="1" tooltips="1" connect="1" arrows="1" fold="1" page="1" pageScale="1" pageWidth="827" pageHeight="1169" math="0" shadow="0">
      <root>
        <mxCell id="WIyWlLk6GJQsqaUBKTNV-0" />
        <mxCell id="WIyWlLk6GJQsqaUBKTNV-1" parent="WIyWlLk6GJQsqaUBKTNV-0" />
        <mxCell id="WIyWlLk6GJQsqaUBKTNV-3" value="Start" style="rounded=1;whiteSpace=wrap;html=1;fontSize=12;glass=0;strokeWidth=1;shadow=0;fillColor=#b0e3e6;strokeColor=#0e8088;" parent="WIyWlLk6GJQsqaUBKTNV-1" vertex="1">
          <mxGeometry x="310" y="-1250" width="120" height="40" as="geometry" />
        </mxCell>
        <mxCell id="1uY3P6BP2WUvcTC9wnob-10" style="edgeStyle=orthogonalEdgeStyle;rounded=0;orthogonalLoop=1;jettySize=auto;html=1;entryX=0.5;entryY=1;entryDx=0;entryDy=0;entryPerimeter=0;" edge="1" parent="WIyWlLk6GJQsqaUBKTNV-1" source="1uY3P6BP2WUvcTC9wnob-3" target="1uY3P6BP2WUvcTC9wnob-6">
          <mxGeometry relative="1" as="geometry" />
        </mxCell>
        <mxCell id="1uY3P6BP2WUvcTC9wnob-12" style="edgeStyle=orthogonalEdgeStyle;rounded=0;orthogonalLoop=1;jettySize=auto;html=1;entryX=0.5;entryY=0;entryDx=0;entryDy=0;entryPerimeter=0;" edge="1" parent="WIyWlLk6GJQsqaUBKTNV-1" source="1uY3P6BP2WUvcTC9wnob-3" target="1uY3P6BP2WUvcTC9wnob-5">
          <mxGeometry relative="1" as="geometry" />
        </mxCell>
        <mxCell id="1uY3P6BP2WUvcTC9wnob-3" value="&lt;b&gt;Order&lt;/b&gt;" style="strokeWidth=2;html=1;shape=mxgraph.flowchart.database;whiteSpace=wrap;fillColor=#b0e3e6;strokeColor=#0e8088;" vertex="1" parent="WIyWlLk6GJQsqaUBKTNV-1">
          <mxGeometry x="1350" y="-690" width="170" height="120" as="geometry" />
        </mxCell>
        <mxCell id="1uY3P6BP2WUvcTC9wnob-7" style="edgeStyle=orthogonalEdgeStyle;rounded=0;orthogonalLoop=1;jettySize=auto;html=1;" edge="1" parent="WIyWlLk6GJQsqaUBKTNV-1" source="1uY3P6BP2WUvcTC9wnob-4" target="1uY3P6BP2WUvcTC9wnob-6">
          <mxGeometry relative="1" as="geometry" />
        </mxCell>
        <mxCell id="1uY3P6BP2WUvcTC9wnob-13" style="edgeStyle=orthogonalEdgeStyle;rounded=0;orthogonalLoop=1;jettySize=auto;html=1;entryX=1;entryY=0.5;entryDx=0;entryDy=0;entryPerimeter=0;" edge="1" parent="WIyWlLk6GJQsqaUBKTNV-1" source="1uY3P6BP2WUvcTC9wnob-4" target="1uY3P6BP2WUvcTC9wnob-5">
          <mxGeometry relative="1" as="geometry">
            <Array as="points">
              <mxPoint x="1590" y="-1030" />
              <mxPoint x="1590" y="-440" />
            </Array>
          </mxGeometry>
        </mxCell>
        <mxCell id="1uY3P6BP2WUvcTC9wnob-4" value="&lt;b&gt;Products&lt;/b&gt;" style="strokeWidth=2;html=1;shape=mxgraph.flowchart.database;whiteSpace=wrap;fillColor=#fad9d5;strokeColor=#ae4132;" vertex="1" parent="WIyWlLk6GJQsqaUBKTNV-1">
          <mxGeometry x="1350" y="-1090" width="170" height="120" as="geometry" />
        </mxCell>
        <mxCell id="1uY3P6BP2WUvcTC9wnob-11" style="edgeStyle=orthogonalEdgeStyle;rounded=0;orthogonalLoop=1;jettySize=auto;html=1;" edge="1" parent="WIyWlLk6GJQsqaUBKTNV-1" source="1uY3P6BP2WUvcTC9wnob-5" target="1uY3P6BP2WUvcTC9wnob-3">
          <mxGeometry relative="1" as="geometry" />
        </mxCell>
        <mxCell id="1uY3P6BP2WUvcTC9wnob-14" style="edgeStyle=orthogonalEdgeStyle;rounded=0;orthogonalLoop=1;jettySize=auto;html=1;entryX=1;entryY=0.5;entryDx=0;entryDy=0;entryPerimeter=0;" edge="1" parent="WIyWlLk6GJQsqaUBKTNV-1" source="1uY3P6BP2WUvcTC9wnob-5" target="1uY3P6BP2WUvcTC9wnob-4">
          <mxGeometry relative="1" as="geometry">
            <Array as="points">
              <mxPoint x="1590" y="-440.0000000000002" />
              <mxPoint x="1590" y="-1030" />
            </Array>
          </mxGeometry>
        </mxCell>
        <mxCell id="1uY3P6BP2WUvcTC9wnob-5" value="&lt;b&gt;Sales&lt;/b&gt;" style="strokeWidth=2;html=1;shape=mxgraph.flowchart.database;whiteSpace=wrap;fillColor=#b1ddf0;strokeColor=#10739e;" vertex="1" parent="WIyWlLk6GJQsqaUBKTNV-1">
          <mxGeometry x="1350" y="-500" width="170" height="120" as="geometry" />
        </mxCell>
        <mxCell id="1uY3P6BP2WUvcTC9wnob-8" style="edgeStyle=orthogonalEdgeStyle;rounded=0;orthogonalLoop=1;jettySize=auto;html=1;entryX=0.5;entryY=1;entryDx=0;entryDy=0;entryPerimeter=0;" edge="1" parent="WIyWlLk6GJQsqaUBKTNV-1" source="1uY3P6BP2WUvcTC9wnob-6" target="1uY3P6BP2WUvcTC9wnob-4">
          <mxGeometry relative="1" as="geometry" />
        </mxCell>
        <mxCell id="1uY3P6BP2WUvcTC9wnob-9" style="edgeStyle=orthogonalEdgeStyle;rounded=0;orthogonalLoop=1;jettySize=auto;html=1;" edge="1" parent="WIyWlLk6GJQsqaUBKTNV-1" source="1uY3P6BP2WUvcTC9wnob-6" target="1uY3P6BP2WUvcTC9wnob-3">
          <mxGeometry relative="1" as="geometry" />
        </mxCell>
        <mxCell id="1uY3P6BP2WUvcTC9wnob-6" value="&lt;b&gt;Cart&lt;/b&gt;" style="strokeWidth=2;html=1;shape=mxgraph.flowchart.database;whiteSpace=wrap;fillColor=#fad7ac;strokeColor=#b46504;" vertex="1" parent="WIyWlLk6GJQsqaUBKTNV-1">
          <mxGeometry x="1350" y="-890" width="170" height="120" as="geometry" />
        </mxCell>
        <mxCell id="1uY3P6BP2WUvcTC9wnob-43" value="Main Form" style="rounded=1;whiteSpace=wrap;html=1;fontSize=12;glass=0;strokeWidth=1;shadow=0;fillColor=#b0e3e6;strokeColor=#0e8088;" vertex="1" parent="WIyWlLk6GJQsqaUBKTNV-1">
          <mxGeometry x="-120" y="-1120" width="120" height="40" as="geometry" />
        </mxCell>
        <mxCell id="1uY3P6BP2WUvcTC9wnob-44" value="" style="rounded=0;html=1;jettySize=auto;orthogonalLoop=1;fontSize=11;endArrow=block;endFill=0;endSize=8;strokeWidth=1;shadow=0;labelBackgroundColor=none;edgeStyle=orthogonalEdgeStyle;exitX=1;exitY=0.5;exitDx=0;exitDy=0;" edge="1" parent="WIyWlLk6GJQsqaUBKTNV-1" source="1uY3P6BP2WUvcTC9wnob-57" target="1uY3P6BP2WUvcTC9wnob-46">
          <mxGeometry relative="1" as="geometry">
            <Array as="points">
              <mxPoint x="310" y="-940" />
            </Array>
          </mxGeometry>
        </mxCell>
        <mxCell id="1uY3P6BP2WUvcTC9wnob-45" style="edgeStyle=orthogonalEdgeStyle;rounded=0;orthogonalLoop=1;jettySize=auto;html=1;entryX=0.5;entryY=0;entryDx=0;entryDy=0;" edge="1" parent="WIyWlLk6GJQsqaUBKTNV-1" source="1uY3P6BP2WUvcTC9wnob-46" target="1uY3P6BP2WUvcTC9wnob-51">
          <mxGeometry relative="1" as="geometry" />
        </mxCell>
        <mxCell id="1uY3P6BP2WUvcTC9wnob-46" value="Select Item" style="rhombus;whiteSpace=wrap;html=1;shadow=0;fontFamily=Helvetica;fontSize=12;align=center;strokeWidth=1;spacing=6;spacingTop=-4;fillColor=#bac8d3;strokeColor=#23445d;" vertex="1" parent="WIyWlLk6GJQsqaUBKTNV-1">
          <mxGeometry x="260" y="-860" width="100" height="80" as="geometry" />
        </mxCell>
        <mxCell id="1uY3P6BP2WUvcTC9wnob-47" style="edgeStyle=orthogonalEdgeStyle;rounded=0;orthogonalLoop=1;jettySize=auto;html=1;entryX=1;entryY=0.5;entryDx=0;entryDy=0;" edge="1" parent="WIyWlLk6GJQsqaUBKTNV-1" source="1uY3P6BP2WUvcTC9wnob-48" target="1uY3P6BP2WUvcTC9wnob-58">
          <mxGeometry relative="1" as="geometry">
            <Array as="points">
              <mxPoint x="460" y="-370" />
            </Array>
          </mxGeometry>
        </mxCell>
        <mxCell id="1uY3P6BP2WUvcTC9wnob-48" value="Add to Cart" style="rounded=1;whiteSpace=wrap;html=1;fontSize=12;glass=0;strokeWidth=1;shadow=0;fillColor=#ffff88;strokeColor=#36393d;" vertex="1" parent="WIyWlLk6GJQsqaUBKTNV-1">
          <mxGeometry x="400" y="-495" width="120" height="40" as="geometry" />
        </mxCell>
        <mxCell id="1uY3P6BP2WUvcTC9wnob-49" value="Yes" style="rounded=0;html=1;jettySize=auto;orthogonalLoop=1;fontSize=11;endArrow=block;endFill=0;endSize=8;strokeWidth=1;shadow=0;labelBackgroundColor=none;edgeStyle=orthogonalEdgeStyle;" edge="1" parent="WIyWlLk6GJQsqaUBKTNV-1" source="1uY3P6BP2WUvcTC9wnob-55" target="1uY3P6BP2WUvcTC9wnob-53">
          <mxGeometry x="-0.3333" y="20" relative="1" as="geometry">
            <mxPoint as="offset" />
            <mxPoint x="310" y="-530" as="sourcePoint" />
          </mxGeometry>
        </mxCell>
        <mxCell id="1uY3P6BP2WUvcTC9wnob-50" style="edgeStyle=orthogonalEdgeStyle;rounded=0;orthogonalLoop=1;jettySize=auto;html=1;entryX=0.5;entryY=0;entryDx=0;entryDy=0;" edge="1" parent="WIyWlLk6GJQsqaUBKTNV-1" source="1uY3P6BP2WUvcTC9wnob-51" target="1uY3P6BP2WUvcTC9wnob-55">
          <mxGeometry relative="1" as="geometry" />
        </mxCell>
        <mxCell id="1uY3P6BP2WUvcTC9wnob-51" value="Add Quantity" style="rhombus;whiteSpace=wrap;html=1;shadow=0;fontFamily=Helvetica;fontSize=12;align=center;strokeWidth=1;spacing=6;spacingTop=-4;fillColor=#bac8d3;strokeColor=#23445d;" vertex="1" parent="WIyWlLk6GJQsqaUBKTNV-1">
          <mxGeometry x="260" y="-740" width="100" height="80" as="geometry" />
        </mxCell>
        <mxCell id="1uY3P6BP2WUvcTC9wnob-52" style="edgeStyle=orthogonalEdgeStyle;rounded=0;orthogonalLoop=1;jettySize=auto;html=1;" edge="1" parent="WIyWlLk6GJQsqaUBKTNV-1" source="1uY3P6BP2WUvcTC9wnob-53" target="1uY3P6BP2WUvcTC9wnob-48">
          <mxGeometry relative="1" as="geometry" />
        </mxCell>
        <mxCell id="1uY3P6BP2WUvcTC9wnob-53" value="Apply discount to item" style="rounded=1;whiteSpace=wrap;html=1;fontSize=12;glass=0;strokeWidth=1;shadow=0;fillColor=#cdeb8b;strokeColor=#36393d;" vertex="1" parent="WIyWlLk6GJQsqaUBKTNV-1">
          <mxGeometry x="250" y="-495.5" width="120" height="40" as="geometry" />
        </mxCell>
        <mxCell id="1uY3P6BP2WUvcTC9wnob-54" value="Check Out" style="rounded=1;whiteSpace=wrap;html=1;fontSize=12;glass=0;strokeWidth=1;shadow=0;fillColor=#b1ddf0;strokeColor=#10739e;" vertex="1" parent="WIyWlLk6GJQsqaUBKTNV-1">
          <mxGeometry x="165" y="-220" width="110" height="40" as="geometry" />
        </mxCell>
        <mxCell id="1uY3P6BP2WUvcTC9wnob-55" value="Apply Voucher?" style="rhombus;whiteSpace=wrap;html=1;shadow=0;fontFamily=Helvetica;fontSize=12;align=center;strokeWidth=1;spacing=6;spacingTop=-4;fillColor=#bac8d3;strokeColor=#23445d;" vertex="1" parent="WIyWlLk6GJQsqaUBKTNV-1">
          <mxGeometry x="260" y="-620" width="100" height="80" as="geometry" />
        </mxCell>
        <mxCell id="1uY3P6BP2WUvcTC9wnob-56" value="No" style="rounded=0;html=1;jettySize=auto;orthogonalLoop=1;fontSize=11;endArrow=block;endFill=0;endSize=8;strokeWidth=1;shadow=0;labelBackgroundColor=none;edgeStyle=orthogonalEdgeStyle;entryX=0.5;entryY=0;entryDx=0;entryDy=0;exitX=1;exitY=0.5;exitDx=0;exitDy=0;" edge="1" parent="WIyWlLk6GJQsqaUBKTNV-1" source="1uY3P6BP2WUvcTC9wnob-55" target="1uY3P6BP2WUvcTC9wnob-48">
          <mxGeometry x="-0.4595" y="10" relative="1" as="geometry">
            <mxPoint as="offset" />
            <mxPoint x="470" y="-630" as="sourcePoint" />
            <mxPoint x="190" y="-370" as="targetPoint" />
            <Array as="points">
              <mxPoint x="460" y="-580" />
            </Array>
          </mxGeometry>
        </mxCell>
        <mxCell id="1uY3P6BP2WUvcTC9wnob-57" value="Choose Category" style="rhombus;whiteSpace=wrap;html=1;shadow=0;fontFamily=Helvetica;fontSize=12;align=center;strokeWidth=1;spacing=6;spacingTop=-4;fillColor=#bac8d3;strokeColor=#23445d;" vertex="1" parent="WIyWlLk6GJQsqaUBKTNV-1">
          <mxGeometry x="170" y="-980" width="100" height="80" as="geometry" />
        </mxCell>
        <mxCell id="1uY3P6BP2WUvcTC9wnob-58" value="Select More Item?" style="rhombus;whiteSpace=wrap;html=1;shadow=0;fontFamily=Helvetica;fontSize=12;align=center;strokeWidth=1;spacing=6;spacingTop=-4;fillColor=#d0cee2;strokeColor=#56517e;" vertex="1" parent="WIyWlLk6GJQsqaUBKTNV-1">
          <mxGeometry x="260" y="-410" width="100" height="80" as="geometry" />
        </mxCell>
        <mxCell id="1uY3P6BP2WUvcTC9wnob-59" value="Yes" style="rounded=0;html=1;jettySize=auto;orthogonalLoop=1;fontSize=11;endArrow=block;endFill=0;endSize=8;strokeWidth=1;shadow=0;labelBackgroundColor=none;edgeStyle=orthogonalEdgeStyle;entryX=0.5;entryY=1;entryDx=0;entryDy=0;exitX=0.5;exitY=1;exitDx=0;exitDy=0;" edge="1" parent="WIyWlLk6GJQsqaUBKTNV-1" source="1uY3P6BP2WUvcTC9wnob-58" target="1uY3P6BP2WUvcTC9wnob-57">
          <mxGeometry x="-0.7538" y="-20" relative="1" as="geometry">
            <mxPoint as="offset" />
            <mxPoint x="130" y="-605" as="sourcePoint" />
            <mxPoint x="130" y="-560" as="targetPoint" />
            <Array as="points">
              <mxPoint x="310" y="-290" />
              <mxPoint x="220" y="-290" />
            </Array>
          </mxGeometry>
        </mxCell>
        <mxCell id="1uY3P6BP2WUvcTC9wnob-60" value="No" style="rounded=0;html=1;jettySize=auto;orthogonalLoop=1;fontSize=11;endArrow=block;endFill=0;endSize=8;strokeWidth=1;shadow=0;labelBackgroundColor=none;edgeStyle=orthogonalEdgeStyle;entryX=0;entryY=0.5;entryDx=0;entryDy=0;exitX=0.5;exitY=1;exitDx=0;exitDy=0;" edge="1" parent="WIyWlLk6GJQsqaUBKTNV-1" source="1uY3P6BP2WUvcTC9wnob-58" target="1uY3P6BP2WUvcTC9wnob-61">
          <mxGeometry x="0.1429" y="20" relative="1" as="geometry">
            <mxPoint as="offset" />
            <mxPoint x="460" y="-370" as="sourcePoint" />
            <mxPoint x="460" y="-160" as="targetPoint" />
            <Array as="points">
              <mxPoint x="310" y="-290" />
              <mxPoint x="400" y="-290" />
            </Array>
          </mxGeometry>
        </mxCell>
        <mxCell id="1uY3P6BP2WUvcTC9wnob-61" value="Edit Cart?" style="rhombus;whiteSpace=wrap;html=1;shadow=0;fontFamily=Helvetica;fontSize=12;align=center;strokeWidth=1;spacing=6;spacingTop=-4;fillColor=#d0cee2;strokeColor=#56517e;" vertex="1" parent="WIyWlLk6GJQsqaUBKTNV-1">
          <mxGeometry x="410" y="-330" width="100" height="80" as="geometry" />
        </mxCell>
        <mxCell id="1uY3P6BP2WUvcTC9wnob-62" value="No" style="rounded=0;html=1;jettySize=auto;orthogonalLoop=1;fontSize=11;endArrow=block;endFill=0;endSize=8;strokeWidth=1;shadow=0;labelBackgroundColor=none;edgeStyle=orthogonalEdgeStyle;exitX=0.5;exitY=1;exitDx=0;exitDy=0;entryX=1;entryY=0.5;entryDx=0;entryDy=0;" edge="1" parent="WIyWlLk6GJQsqaUBKTNV-1" source="1uY3P6BP2WUvcTC9wnob-61" target="1uY3P6BP2WUvcTC9wnob-54">
          <mxGeometry x="0.4072" y="10" relative="1" as="geometry">
            <mxPoint x="1" as="offset" />
            <mxPoint x="330.05999999999995" y="-230" as="sourcePoint" />
            <mxPoint x="370" y="-190" as="targetPoint" />
            <Array as="points">
              <mxPoint x="460" y="-200" />
            </Array>
          </mxGeometry>
        </mxCell>
        <mxCell id="1uY3P6BP2WUvcTC9wnob-63" value="Yes" style="rounded=0;html=1;jettySize=auto;orthogonalLoop=1;fontSize=11;endArrow=block;endFill=0;endSize=8;strokeWidth=1;shadow=0;labelBackgroundColor=none;edgeStyle=orthogonalEdgeStyle;exitX=1;exitY=0.5;exitDx=0;exitDy=0;entryX=1;entryY=0.5;entryDx=0;entryDy=0;" edge="1" parent="WIyWlLk6GJQsqaUBKTNV-1" source="1uY3P6BP2WUvcTC9wnob-61" target="1uY3P6BP2WUvcTC9wnob-65">
          <mxGeometry x="-0.3333" y="20" relative="1" as="geometry">
            <mxPoint as="offset" />
            <mxPoint x="550" y="-210" as="sourcePoint" />
            <mxPoint x="550" y="-165" as="targetPoint" />
          </mxGeometry>
        </mxCell>
        <mxCell id="1uY3P6BP2WUvcTC9wnob-64" style="edgeStyle=orthogonalEdgeStyle;rounded=0;orthogonalLoop=1;jettySize=auto;html=1;entryX=0.5;entryY=1;entryDx=0;entryDy=0;" edge="1" parent="WIyWlLk6GJQsqaUBKTNV-1" source="1uY3P6BP2WUvcTC9wnob-65" target="1uY3P6BP2WUvcTC9wnob-54">
          <mxGeometry relative="1" as="geometry" />
        </mxCell>
        <mxCell id="1uY3P6BP2WUvcTC9wnob-65" value="Edit Cart (Add/Remove)" style="rounded=1;whiteSpace=wrap;html=1;fontSize=12;glass=0;strokeWidth=1;shadow=0;fillColor=#cdeb8b;strokeColor=#36393d;" vertex="1" parent="WIyWlLk6GJQsqaUBKTNV-1">
          <mxGeometry x="360" y="-140" width="120" height="40" as="geometry" />
        </mxCell>
        <mxCell id="1uY3P6BP2WUvcTC9wnob-66" value="Store" style="rounded=1;whiteSpace=wrap;html=1;fontSize=12;glass=0;strokeWidth=1;shadow=0;fillColor=#b0e3e6;strokeColor=#0e8088;" vertex="1" parent="WIyWlLk6GJQsqaUBKTNV-1">
          <mxGeometry x="440" y="-1120" width="120" height="40" as="geometry" />
        </mxCell>
        <mxCell id="1uY3P6BP2WUvcTC9wnob-68" value="Popular" style="rounded=1;whiteSpace=wrap;html=1;fontSize=12;glass=0;strokeWidth=1;shadow=0;fillColor=#b0e3e6;strokeColor=#0e8088;" vertex="1" parent="WIyWlLk6GJQsqaUBKTNV-1">
          <mxGeometry x="720" y="-1120" width="120" height="40" as="geometry" />
        </mxCell>
        <mxCell id="1uY3P6BP2WUvcTC9wnob-69" value="Category" style="rounded=1;whiteSpace=wrap;html=1;fontSize=12;glass=0;strokeWidth=1;shadow=0;fillColor=#b0e3e6;strokeColor=#0e8088;" vertex="1" parent="WIyWlLk6GJQsqaUBKTNV-1">
          <mxGeometry x="160" y="-1120" width="120" height="40" as="geometry" />
        </mxCell>
      </root>
    </mxGraphModel>
  </diagram>
</mxfile>
